<?xml version="1.0" standalone="no"?>
<!DOCTYPE svg PUBLIC "-//W3C//DTD SVG 20010904//EN"
 "http://www.w3.org/TR/2001/REC-SVG-20010904/DTD/svg10.dtd">
<svg version="1.0" xmlns="http://www.w3.org/2000/svg"
 width="500.000000pt" height="500.000000pt" viewBox="0 0 500.000000 500.000000"
 preserveAspectRatio="xMidYMid meet">

<g transform="translate(0.000000,500.000000) scale(0.100000,-0.100000)"
fill="#000000" stroke="none">
<path d="M0 4395 l0 -605 50 0 50 0 0 555 0 555 555 0 555 0 0 50 0 50 -605 0
-605 0 0 -605z"/>
<path d="M3730 4945 l0 -55 585 0 585 0 0 -580 0 -580 50 0 50 0 0 635 0 635
-635 0 -635 0 0 -55z"/>
<path d="M4285 4510 c-49 -31 -78 -92 -73 -152 12 -118 136 -184 238 -127 56
32 80 73 80 140 0 64 -24 110 -72 139 -44 27 -132 27 -173 0z"/>
<path d="M513 3648 c4 -79 9 -240 12 -358 3 -118 8 -230 11 -247 l5 -33 124 0
123 0 6 28 c3 15 13 172 23 350 13 246 20 322 30 322 10 0 13 -25 13 -97 0
-54 7 -197 15 -318 8 -121 15 -235 15 -252 l0 -33 129 0 128 0 7 133 c3 72 8
222 11 332 3 110 8 226 11 258 l5 57 -71 0 -70 0 0 -72 c-1 -137 -20 -611 -25
-616 -3 -3 -7 -3 -9 -1 -2 2 -11 135 -20 294 -9 160 -19 314 -22 343 l-5 52
-118 0 -117 0 -17 -287 c-10 -159 -17 -314 -17 -345 0 -43 -4 -58 -14 -58 -11
0 -15 56 -20 298 -4 163 -9 318 -12 345 l-6 47 -65 0 -66 0 6 -142z"/>
<path d="M1270 3400 l0 -390 75 0 75 0 0 175 c0 188 6 217 52 249 25 18 100
21 129 6 42 -23 49 -59 49 -250 l0 -180 70 0 70 0 0 208 c-1 263 -12 301 -105
343 -80 37 -170 19 -221 -45 -16 -20 -32 -36 -36 -36 -5 0 -8 70 -8 155 l0
155 -75 0 -75 0 0 -390z"/>
<path d="M2790 3680 l0 -110 -80 0 -80 0 0 -70 0 -70 79 0 79 0 4 -186 3 -186
28 -24 c27 -23 35 -24 163 -24 l134 0 0 65 0 65 -74 0 c-113 0 -106 -9 -106
151 l0 138 98 3 97 3 0 65 0 65 -97 3 -98 3 0 109 0 110 -75 0 -75 0 0 -110z"/>
<path d="M2064 3561 c-53 -24 -111 -93 -129 -155 -8 -27 -15 -82 -15 -122 0
-172 96 -286 240 -286 66 0 110 19 142 62 24 33 38 38 38 15 0 -9 11 -27 25
-40 21 -22 33 -25 90 -25 l65 0 0 63 c0 58 -2 65 -25 75 l-25 12 0 205 0 205
-70 0 -70 0 0 -35 c0 -42 -9 -44 -41 -9 -50 55 -147 70 -225 35z m206 -139
c58 -43 77 -140 41 -219 -22 -48 -62 -73 -118 -73 -82 0 -133 62 -133 160 0
103 61 166 150 155 19 -2 46 -13 60 -23z"/>
<path d="M750 2565 c-108 -34 -180 -138 -180 -257 l0 -68 69 0 68 0 7 60 c8
72 39 114 96 131 88 26 170 -23 170 -103 0 -76 -30 -101 -163 -137 -196 -53
-247 -121 -247 -326 l0 -85 275 0 275 0 0 70 0 70 -200 0 -200 0 0 24 c0 55
44 83 204 131 76 23 95 33 135 73 51 52 71 101 71 177 0 148 -98 243 -259 251
-49 3 -92 -1 -121 -11z"/>
<path d="M513 1198 c4 -79 9 -240 12 -358 3 -118 8 -230 11 -247 l5 -33 124 0
123 0 6 27 c3 16 13 173 23 351 13 246 20 322 30 322 10 0 13 -25 13 -97 0
-54 7 -197 15 -318 8 -121 15 -235 15 -252 l0 -33 129 0 128 0 7 133 c3 72 8
222 11 332 3 110 8 226 11 258 l5 57 -71 0 -70 0 0 -72 c-1 -137 -20 -611 -25
-616 -3 -3 -7 -3 -9 -1 -2 2 -11 135 -20 294 -9 160 -19 314 -22 343 l-5 52
-118 0 -117 0 -17 -287 c-10 -159 -17 -314 -17 -345 0 -43 -4 -58 -14 -58 -11
0 -15 56 -20 298 -4 163 -9 318 -12 345 l-6 47 -65 0 -66 0 6 -142z"/>
<path d="M2110 1230 l0 -109 -82 -3 -83 -3 0 -65 0 -65 83 -3 82 -3 0 -179 c0
-98 3 -186 6 -195 13 -34 58 -45 189 -45 l125 0 0 65 0 65 -71 0 c-111 0 -109
-3 -109 155 l0 135 100 0 100 0 0 70 0 70 -100 0 -100 0 0 110 0 110 -70 0
-70 0 0 -110z"/>
<path d="M3330 950 l0 -390 70 0 70 0 0 151 c0 176 11 229 52 264 45 38 114
35 154 -6 l29 -30 3 -190 4 -189 69 0 70 0 -3 218 c-3 210 -4 218 -28 262 -45
82 -154 113 -246 71 -23 -11 -50 -33 -60 -50 -37 -62 -44 -42 -44 124 l0 155
-70 0 -70 0 0 -390z"/>
<path d="M0 605 l0 -605 605 0 605 0 0 50 0 50 -555 0 -555 0 0 555 0 555 -50
0 -50 0 0 -605z"/>
<path d="M4900 655 l0 -555 -555 0 -555 0 0 -50 0 -50 605 0 605 0 0 605 0
605 -50 0 -50 0 0 -555z"/>
<path d="M1395 1119 c-49 -14 -110 -73 -136 -131 -20 -45 -24 -68 -23 -153 1
-111 13 -150 65 -210 85 -96 231 -108 302 -24 19 21 36 39 39 39 3 0 11 -13
17 -29 16 -37 48 -51 116 -51 l55 0 0 65 c0 36 -4 65 -9 65 -5 0 -17 7 -25 16
-14 13 -16 47 -16 215 l0 200 -67 -3 -68 -3 -3 -32 c-4 -39 -14 -42 -35 -9
-32 48 -129 69 -212 45z m190 -145 c51 -33 72 -144 41 -219 -29 -68 -126 -96
-192 -56 -63 38 -84 175 -37 239 43 60 127 76 188 36z"/>
<path d="M2809 1117 c-88 -33 -149 -94 -177 -176 -17 -49 -15 -169 4 -224 40
-119 176 -188 327 -167 101 15 179 77 212 170 16 46 21 41 -67 64 l-58 14 -20
-44 c-21 -50 -63 -74 -126 -74 -87 0 -144 59 -144 151 0 74 25 118 83 147 78
40 162 11 193 -65 8 -18 17 -33 20 -33 2 0 34 7 68 16 63 16 64 17 56 43 -20
69 -72 132 -140 167 -46 23 -181 29 -231 11z"/>
</g>
</svg>
